<svg xmlns="http://www.w3.org/2000/svg" width="328.55" height="29.23" viewBox="0 0 328.55 29.23">
  <g id="Grupo_6" data-name="Grupo 6" transform="translate(-140 -50)">
    <g id="Grupo_5" data-name="Grupo 5">
      <path id="Trazado_2" data-name="Trazado 2" d="M357.24,69.97h3.59c2.65,0,4.27-1.03,4.27-3.51,0-1.97-1.28-2.83-3.42-2.83h-3.16Zm-.34-8.14h5.38c3.33,0,5.13,1.88,5.13,4.46,0,3.68-2.74,5.4-6.5,5.4H356.9l-1.45,6.94h-2.14Z" fill="#fff" fill-rule="evenodd"/>
      <path id="Trazado_3" data-name="Trazado 3" d="M376.55,71.69c-.6-4.03-.94-6.69-1.11-8.06-.77,1.54-2.31,4.46-4.28,8.06Zm-6.24,1.8-2.82,5.14h-2.22l9.31-16.89h2.56l2.57,16.89h-2.14l-.77-5.14Z" fill="#fff" fill-rule="evenodd"/>
      <path id="Trazado_4" data-name="Trazado 4" d="M386.11,69.37h3.34c2.73,0,4.44-.94,4.44-3.26,0-1.71-1.03-2.57-2.99-2.57h-3.51Zm-.42,1.72-1.54,7.54h-2.14l3.59-16.89h5.64c3.16,0,4.78,1.63,4.78,4.12a4.3,4.3,0,0,1-3.67,4.45c.94.35,2.31,1.38,1.71,4.2a24.051,24.051,0,0,0-.69,4.03h-1.96a13.25,13.25,0,0,1,.6-4.03c.51-2.4-.17-3.51-2.74-3.51h-3.58Z" fill="#fff" fill-rule="evenodd"/>
      <path id="Trazado_5" data-name="Trazado 5" d="M402.94,63.63h-5.21l.43-1.8h12.56l-.43,1.8h-5.21l-3.16,15.08h-2.14Z" fill="#fff"/>
      <path id="Trazado_6" data-name="Trazado 6" d="M409.69,78.63l3.59-16.89h2.73c1.46,3.86,4.79,12.6,5.3,14.4.26-2.05.94-5.05,1.54-7.8l1.36-6.68h2.05l-3.58,16.88h-2.57c-1.36-3.6-4.78-12.94-5.38-14.83-.34,2.15-.94,4.98-1.54,7.98l-1.45,6.85h-2.05Z" fill="#fff"/>
      <path id="Trazado_7" data-name="Trazado 7" d="M438.74,70.66h-7.86l-1.28,6.17h8.97l-.69,1.8H427.12l3.59-16.89h10.33l-.34,1.8h-8.28l-1.12,5.32h7.86Z" fill="#fff"/>
      <path id="Trazado_8" data-name="Trazado 8" d="M444.97,69.37h3.33c2.74,0,4.45-.94,4.45-3.26,0-1.71-1.03-2.57-2.99-2.57h-3.51Zm-.42,1.72-1.54,7.54h-2.14l3.59-16.89h5.64c3.16,0,4.78,1.63,4.78,4.12a4.3,4.3,0,0,1-3.67,4.45c.94.35,2.31,1.38,1.71,4.2a24.048,24.048,0,0,0-.69,4.03h-1.96a12.925,12.925,0,0,1,.6-4.03c.51-2.4-.17-3.51-2.74-3.51h-3.58Z" fill="#fff" fill-rule="evenodd"/>
      <path id="Trazado_9" data-name="Trazado 9" d="M457.7,73.74c.17,2.23,1.62,3.43,4.02,3.43,2.22,0,3.67-1.03,3.67-3.08,0-1.55-.77-2.49-3.5-3.52-3.08-1.2-4.19-2.4-4.19-4.37,0-2.49,1.71-4.71,5.47-4.71s5.38,2.14,5.38,4.71h-2.14c-.17-1.71-1.02-2.91-3.41-2.91-2.14,0-3.16,1.28-3.16,2.74,0,1.2.51,1.88,3.07,2.83,3.5,1.28,4.7,2.74,4.7,4.97,0,2.66-1.71,5.06-6.15,5.06-3.84,0-5.81-2.15-5.89-5.15Z" fill="#fff"/>
      <rect id="Rect치ngulo_7" data-name="Rect치ngulo 7" width="5.72" height="28.62" transform="translate(140 50.09)" fill="#fff"/>
      <path id="Trazado_10" data-name="Trazado 10" d="M163.07,68.69l11.27-18.6h2.65V78.71h-5.72V66.89l-8.2,11.31-8.21-11.31V78.71h-5.63V50.09h2.56" fill="#fff"/>
      <path id="Trazado_11" data-name="Trazado 11" d="M190.4,55.91h-4.27v8.58h4.27a4.29,4.29,0,0,0,0-8.58Zm-9.91,14.23V50.26h9.91a9.353,9.353,0,0,1,7.01,2.91,9.55,9.55,0,0,1,2.9,7.03,9.918,9.918,0,0,1-9.91,9.94h-4.27v8.57h-5.72" fill="#fff" fill-rule="evenodd"/>
      <path id="Trazado_12" data-name="Trazado 12" d="M210.05,58.31a8.4,8.4,0,0,0-2.56,6.09,8.6,8.6,0,0,0,8.62,8.57,8.47,8.47,0,0,0,6.07-2.48,8.66,8.66,0,0,0-6.07-14.75A8.55,8.55,0,0,0,210.05,58.31Zm16.23-4.02a14.318,14.318,0,0,1,0,20.4,14.355,14.355,0,0,1-24.52-10.2,14.306,14.306,0,0,1,24.52-10.2Z" fill="#fff" fill-rule="evenodd"/>
      <path id="Trazado_13" data-name="Trazado 13" d="M246.53,59.77a3.782,3.782,0,0,0-1.11-2.74,5.518,5.518,0,0,0-3.51-1.12h-3.16V63.8h4.1A3.966,3.966,0,0,0,246.53,59.77Zm-13.59-9.51h9.32a10.361,10.361,0,0,1,7.43,2.91,8.078,8.078,0,0,1,2.73,6.43v.77a9.311,9.311,0,0,1-1.79,5.4,7.129,7.129,0,0,1-3.42,2.66l6.58,10.28h-6.92l-8.12-12.6v12.6h-5.72" fill="#fff" fill-rule="evenodd"/>
      <path id="Trazado_14" data-name="Trazado 14" d="M274.8,50.26v5.65h-6.92v22.8h-5.72V55.91h-7.01V50.26" fill="#fff"/>
      <rect id="Rect치ngulo_8" data-name="Rect치ngulo 8" width="5.72" height="28.45" transform="translate(277.28 50.26)" fill="#ffcd02"/>
      <path id="Trazado_15" data-name="Trazado 15" d="M303.51,65.94V50.17h5.72V79.23h-2.31L292.14,62.94V78.71h-5.63V50.09h2.3" fill="#ffcd02"/>
      <path id="Trazado_16" data-name="Trazado 16" d="M326.06,50.09a14.613,14.613,0,0,1,10.16,4.2l-4.1,4.11a8.307,8.307,0,0,0-6.06-2.57,8.092,8.092,0,0,0-6.07,2.57,8.364,8.364,0,0,0-2.56,6.09,8.76,8.76,0,0,0,8.63,8.65,8.683,8.683,0,0,0,7.77-4.97h-8.11V62.69h14.52a14.459,14.459,0,0,1-4.1,11.91,13.847,13.847,0,0,1-10.17,4.2,14.323,14.323,0,0,1-14.35-14.4,14.174,14.174,0,0,1,14.44-14.31Z" fill="#ffcd02"/>
      <path id="Trazado_17" data-name="Trazado 17" d="M344.51,75.8h.6c.34,0,.51-.17.51-.43s-.17-.43-.51-.43h-.6Zm0,1.8h-.6V74.51h1.37c.68,0,1.02.35,1.02.86a.716.716,0,0,1-.42.69c.17.08.34.25.34.77V77a1.555,1.555,0,0,0,.08.6h-.68a1.572,1.572,0,0,1-.08-.69v-.08c0-.34-.09-.52-.6-.52h-.43Z" fill="#1d1d1b" fill-rule="evenodd"/>
      <path id="Trazado_18" data-name="Trazado 18" d="M348.1,76.14a3.207,3.207,0,0,1-.9,2.19,3.057,3.057,0,0,1-1,.66,3,3,0,0,1-1.18.24,2.952,2.952,0,0,1-1.17-.24,3.057,3.057,0,0,1-1-.66,3.09,3.09,0,0,1-.9-2.19,3.178,3.178,0,0,1,.23-1.18,3.1,3.1,0,0,1,1.67-1.67,3.127,3.127,0,0,1,1.17-.23,3.178,3.178,0,0,1,1.18.23,3.085,3.085,0,0,1,1,.67,2.907,2.907,0,0,1,.66,1A3,3,0,0,1,348.1,76.14Z" fill="#fff"/>
    </g>
  </g>
</svg>
